# xmcd
#
# Track frame offsets:
#	150
#	11108
#	26092
#	39722
#	52399
#	66905
#	80298
#	95150
#	108844
#	122944
#	154569
#	166385
#
# Disc length: 2384 seconds
#
# Revision: 3
# Processed by: cddbd v1.5.2PL0 Copyright (c) Steve Scherf et al.
# Submitted via: audiograbber 1.83.01
#
DISCID=a3094e0c
DTITLE=Various Artist - The Christmas Collection - Silent Night
DYEAR=2008
DGENRE=(Xmas)
TTITLE0=Elvis Presley - Silent Night
TTITLE1=Les Brown and His Orchestra - Sleigh Ride in July
TTITLE2=Bing Crosby - I'll be Home For Christmas
TTITLE3=Doris Day with Norman Luboff Choir and Orchestra - Silver Bells
TTITLE4=Frank Sinatra with the Phil Moore Four - Bop! Goes My Heart
TTITLE5=The Andrews Sisters and Guy Lombardo Orchestra - Merry Christmas Polka
TTITLE6=Woody Herman and His Orchestra - Let It Snow, Let It Snow, Let It Snow
TTITLE7=Gene Autry with The Cass Country Boys and Carl Cotner's Orchestra - Frost
TTITLE7=y The Snowman
TTITLE8=Peggy Lee and Art Lund with The Benny Goodman Orchestra - Winter Weather
TTITLE9=The Rocky Mountaineers - Christmas In The Rockies
TTITLE10=Perry Como and The Russ Case Orchestra featuring The Soul Satisfiers - W
TTITLE10=inter Wonderland
TTITLE11=Bing Crosby and John Scott Trotter Orchestra - Silent Night Holy Night
EXTD=
EXTT0=
EXTT1=
EXTT2=
EXTT3=
EXTT4=
EXTT5=
EXTT6=
EXTT7=
EXTT8=
EXTT9=
EXTT10=
EXTT11=
PLAYORDER=
